<svg width="64" height="57" viewBox="0 0 64 57" fill="none" xmlns="http://www.w3.org/2000/svg">
<path d="M13.3531 4.60296C14.9617 1.8168 17.9345 0.100453 21.1517 0.100454L42.9144 0.100453C46.1316 0.100453 49.1044 1.8168 50.713 4.60297L61.5943 23.45C63.2029 26.2362 63.2029 29.6689 61.5943 32.455L50.713 51.3021C49.1044 54.0882 46.1316 55.8046 42.9144 55.8046L21.1517 55.8046C17.9345 55.8046 14.9617 54.0883 13.3531 51.3021L2.47176 32.455C0.863166 29.6689 0.863167 26.2362 2.47176 23.45L13.3531 4.60296Z" fill="#D9D9D9"/>
<path fill-rule="evenodd" clip-rule="evenodd" d="M44.3938 20.9246V35.2361L31.9996 42.3919V27.5175L44.3938 20.9246Z" fill="#76A2B7"/>
<path d="M19.6055 35.2361L31.9996 42.3919V27.5175L19.6055 20.9246V35.2361Z" fill="#3F7D9B"/>
<path d="M44.3938 20.9246L31.9996 13.7688L19.6055 20.9246L31.9996 27.5175L44.3938 20.9246Z" fill="#B3BEC4"/>
<path d="M58.0489 17.5477C50.1957 5.45779 36.9148 10.1648 31.9986 13.7688L44.3805 20.9246V35.2362C44.3805 35.2362 46.0755 53.9694 27.4961 55.7387H42.0531C50.0891 56.1407 51.357 50.2155 55.2348 43.5176C57.8881 38.9347 63.1142 30.6532 62.873 28.402C63.14 25.0299 59.9158 20.4219 58.0489 17.5477Z" fill="url(#paint0_linear_325_159)"/>
<path d="M5.96461 38.5778C13.8143 50.7523 27.0894 46.0124 32.0034 42.3831L19.6269 35.1773V20.7657C19.6269 20.7657 17.9327 1.90153 36.5039 0.119907H21.9533C13.9209 -0.284912 12.6535 5.68164 8.77744 12.4264C6.12534 17.0414 0.901516 25.3807 1.14262 27.6477C0.875702 31.0433 4.09849 35.6836 5.96461 38.5778Z" fill="url(#paint1_linear_325_159)"/>
<path d="M32.0007 13.9296C27.1556 16.7751 19.6547 21.005 19.6547 21.005C19.6547 21.005 17.6892 2.35171 36.0741 0.222791C38.1842 -0.0215515 47.2701 -0.699436 50.0108 3.95975C54.0309 10.7939 58.453 18.1105 58.453 18.1105C58.453 18.1105 48.8181 4.0529 32.0007 13.9296Z" fill="url(#paint2_linear_325_159)"/>
<path d="M31.9192 42.2312C36.7643 39.3857 44.2652 35.1558 44.2652 35.1558C44.2652 35.1558 46.2308 53.8091 27.8458 55.938C25.7357 56.1823 16.6498 56.8602 13.9092 52.201C9.88906 45.3668 5.46695 38.0503 5.46695 38.0503C5.46695 38.0503 15.1018 52.1079 31.9192 42.2312Z" fill="url(#paint3_linear_325_159)"/>
<defs>
<linearGradient id="paint0_linear_325_159" x1="44.4609" y1="11.0628" x2="44.4609" y2="55.7387" gradientUnits="userSpaceOnUse">
<stop stop-color="#86C5FF"/>
<stop offset="1" stop-color="white"/>
</linearGradient>
<linearGradient id="paint1_linear_325_159" x1="19.5466" y1="45.1081" x2="19.5466" y2="0.119924" gradientUnits="userSpaceOnUse">
<stop stop-color="#86C5FF"/>
<stop offset="1" stop-color="white"/>
</linearGradient>
<linearGradient id="paint2_linear_325_159" x1="38.5937" y1="0.100451" x2="38.5937" y2="21.005" gradientUnits="userSpaceOnUse">
<stop stop-color="#86C5FF"/>
<stop offset="1" stop-color="white"/>
</linearGradient>
<linearGradient id="paint3_linear_325_159" x1="25.3262" y1="56.0603" x2="25.3262" y2="35.1558" gradientUnits="userSpaceOnUse">
<stop stop-color="#86C5FF"/>
<stop offset="1" stop-color="white"/>
</linearGradient>
</defs>
</svg>
